<?xml version="1.0" standalone="no"?>
<!DOCTYPE svg PUBLIC "-//W3C//DTD SVG 20010904//EN"
 "http://www.w3.org/TR/2001/REC-SVG-20010904/DTD/svg10.dtd">
<svg version="1.0" xmlns="http://www.w3.org/2000/svg"
 width="275.000000pt" height="275.000000pt" viewBox="0 0 275.000000 275.000000"
 preserveAspectRatio="xMidYMid meet">
<metadata>
Created by potrace 1.14, written by Peter Selinger 2001-2017
</metadata>
<g transform="translate(0.000000,275.000000) scale(0.100000,-0.100000)"
fill="#000000" stroke="none">
<path d="M1630 2273 c-57 -10 -117 -40 -155 -79 l-41 -41 -124 -6 c-257 -12
-517 -92 -700 -216 l-45 -31 -257 0 -258 0 -1 -52 c0 -29 -3 -90 -5 -135 -5
-72 -4 -83 10 -83 14 0 16 -22 16 -184 0 -113 -4 -187 -10 -191 -6 -4 -10
-113 -10 -296 l0 -289 314 0 313 0 94 -44 c184 -87 384 -129 614 -129 235 1
429 41 614 129 l94 44 314 0 314 0 -6 278 c-3 152 -8 419 -12 592 l-8 315
-165 5 c-121 4 -174 10 -200 22 -19 9 -62 21 -95 28 -33 7 -79 23 -102 37
l-43 25 0 61 c0 89 -3 91 -89 70 -71 -17 -73 -17 -87 2 -8 10 -14 27 -14 37 0
10 -7 21 -16 25 -8 3 -20 16 -24 29 -5 13 -21 26 -36 30 -15 4 -35 15 -46 26
-12 12 -26 17 -38 13 -10 -3 -21 -1 -25 5 -6 10 -37 11 -85 3z m44 -100 l-4
-68 19 54 c16 49 44 81 58 67 4 -3 1 -17 -5 -31 -13 -29 5 -48 20 -21 9 16 58
23 58 7 0 -5 -10 -15 -22 -23 -30 -20 -16 -41 18 -26 17 8 28 8 35 1 8 -8 5
-13 -10 -18 -12 -3 -21 -11 -21 -16 0 -5 -3 -8 -7 -7 -15 3 -63 -14 -63 -23 0
-12 5 -11 70 6 30 8 56 15 58 15 1 0 2 -6 2 -14 0 -7 -9 -16 -20 -19 -11 -3
-20 -13 -20 -22 0 -13 5 -15 18 -10 37 16 183 47 190 41 4 -4 8 -40 10 -81 l4
-73 -93 20 c-51 11 -103 27 -116 35 -13 9 -23 11 -23 5 0 -6 9 -14 20 -17 11
-3 20 -10 20 -15 0 -22 -25 -19 -75 9 -66 38 -71 38 -43 6 12 -14 28 -23 36
-20 10 3 12 0 8 -10 -3 -9 3 -19 14 -25 11 -6 20 -15 20 -20 0 -17 -48 -11
-54 7 -5 12 -10 13 -18 5 -9 -9 -9 -18 0 -37 10 -22 9 -25 -9 -25 -13 0 -19
-5 -16 -12 2 -7 19 -117 38 -245 18 -127 37 -229 41 -227 5 3 8 14 8 24 0 11
14 35 30 54 21 23 27 37 19 41 -23 15 -49 91 -49 146 0 107 41 177 129 217 50
24 68 26 176 26 94 0 129 -4 160 -18 34 -15 65 -18 203 -16 l162 1 0 -300 c0
-194 4 -301 10 -301 6 0 10 -37 10 -90 l0 -90 -160 0 c-140 0 -160 2 -160 16
0 12 -5 14 -17 9 -81 -34 -104 -39 -208 -39 -131 0 -205 23 -254 79 -17 19
-32 35 -34 35 -2 0 3 -40 11 -90 l15 -90 133 0 c127 0 134 -1 134 -20 0 -20
-5 -20 -752 -18 -662 3 -753 5 -753 18 0 13 54 15 412 18 381 2 412 4 417 20
8 32 17 112 12 112 -3 0 -20 -9 -38 -20 -88 -54 -314 -66 -410 -22 -47 20 -48
20 -48 1 0 -18 -8 -19 -168 -19 -101 0 -172 4 -178 10 -7 7 -33 7 -80 0 -38
-5 -153 -10 -256 -10 l-188 0 0 95 c0 57 4 95 10 95 6 0 10 80 10 220 0 140
-4 220 -10 220 -6 0 -10 37 -10 90 l0 90 228 0 c125 0 242 -4 260 -9 20 -6 32
-6 32 0 0 5 74 9 175 9 153 0 175 -2 175 -16 0 -9 3 -14 8 -12 126 65 301 60
450 -13 l62 -30 0 -120 0 -119 -139 0 -140 0 -3 52 c-4 77 -28 76 -28 -1 l0
-61 155 0 155 0 1 -132 c2 -157 3 -153 54 197 31 211 34 240 20 248 -11 6 -13
13 -5 27 17 32 10 36 -14 7 l-22 -28 -19 21 c-17 19 -17 21 0 40 21 23 14 26
-16 8 -17 -11 -22 -10 -35 6 -19 26 -18 31 9 44 21 11 20 11 -5 6 -21 -5 -28
-2 -28 9 0 8 -3 22 -6 31 -5 12 1 16 22 17 24 1 25 2 7 6 -18 3 -23 11 -23 33
0 28 2 29 33 25 29 -5 30 -5 10 6 -27 14 -28 19 -9 44 13 17 15 17 50 -10 20
-15 39 -26 41 -23 3 3 -10 16 -30 29 -40 28 -41 30 -16 53 18 16 20 15 56 -26
l36 -43 -23 43 c-23 42 -23 43 -4 57 29 22 33 19 40 -27 10 -67 29 -84 20 -19
-5 40 -3 56 7 62 31 20 37 10 33 -58z m-1494 -1222 c13 -24 13 -68 1 -76 -6
-3 -4 -17 5 -33 17 -33 17 -44 3 -76 -16 -34 -36 -39 -59 -16 -22 22 -27 79
-10 96 7 7 8 19 1 37 -22 57 32 118 59 68z m70 -96 c0 -96 -3 -115 -15 -115
-12 0 -15 16 -15 84 0 46 -3 98 -6 115 -6 27 -4 31 15 31 20 0 21 -4 21 -115z
m90 100 c17 -21 24 -123 11 -171 -25 -94 -76 -46 -75 70 1 99 29 143 64 101z
m89 -62 c13 -85 21 -105 21 -51 0 68 12 128 26 128 9 0 14 -13 14 -37 0 -28 3
-34 10 -23 5 8 10 25 10 38 0 13 6 22 15 22 10 0 15 -10 15 -29 0 -15 3 -56 6
-90 5 -43 3 -61 -5 -61 -6 0 -11 15 -11 35 0 19 -4 35 -10 35 -5 0 -10 -16
-10 -35 0 -19 -4 -35 -10 -35 -5 0 -10 13 -10 29 0 17 -4 33 -10 36 -6 4 -10
-7 -10 -27 0 -28 -4 -33 -25 -34 -15 -1 -25 3 -25 12 0 8 -7 14 -15 14 -8 0
-15 -7 -15 -15 0 -8 -4 -15 -10 -15 -13 0 -13 12 1 105 15 100 33 99 48 -2z
m1909 -22 c4 -68 -11 -141 -28 -141 -20 0 -30 42 -30 120 0 45 5 91 11 102 10
19 12 19 27 4 11 -11 18 -39 20 -85z m-80 -23 c-4 -136 -23 -150 -24 -18 0 50
-4 93 -7 97 -14 14 -6 33 13 33 20 0 21 -5 18 -112z m152 92 c0 -11 -7 -20
-15 -20 -8 0 -15 -7 -15 -16 0 -8 7 -22 15 -30 19 -19 20 -103 1 -129 -16 -23
-46 -14 -46 14 0 13 5 19 14 15 9 -3 17 3 21 15 7 24 -2 61 -16 61 -5 0 -9 25
-9 55 0 52 1 55 25 55 18 0 25 -5 25 -20z m110 0 c0 -11 -7 -20 -15 -20 -19 0
-19 -19 0 -44 29 -38 14 -146 -20 -146 -25 0 -28 21 -6 41 24 23 28 67 6 75
-11 5 -15 21 -15 60 0 51 1 54 25 54 18 0 25 -5 25 -20z m60 6 c0 -8 -6 -16
-12 -19 -10 -3 -10 -9 0 -27 10 -16 11 -25 3 -33 -6 -6 -11 -26 -11 -44 0 -18
-4 -33 -10 -33 -6 0 -10 35 -10 85 0 78 2 85 20 85 11 0 20 -6 20 -14z m42
-18 l1 -33 4 33 c5 34 17 42 27 16 10 -27 7 -156 -4 -149 -5 3 -11 18 -11 33
-1 23 -3 22 -8 -8 l-7 -35 -9 35 -9 35 -3 -33 c-8 -63 -18 -23 -15 57 3 62 7
81 18 81 9 0 15 -12 16 -32z m-1562 -53 c0 -28 4 -35 19 -35 28 0 43 -24 39
-66 -4 -54 -28 -57 -28 -4 0 53 -24 50 -28 -3 -3 -38 -18 -49 -29 -21 -5 15
-7 15 -15 0 -13 -24 -44 -19 -67 10 l-21 27 0 -27 c0 -42 -24 -26 -28 17 -2
20 -7 37 -12 37 -5 0 -10 -17 -12 -37 -5 -58 -28 -54 -28 5 0 44 3 50 24 56
33 8 56 -2 56 -25 0 -16 3 -15 25 6 28 29 50 32 64 8 8 -14 10 -8 11 28 0 25
3 49 7 52 15 15 23 5 23 -28z m430 -54 l0 -89 -40 2 c-43 2 -42 2 -58 31 -11
19 -11 19 -12 -6 0 -25 -2 -25 -60 -25 -54 1 -63 4 -85 31 l-24 30 2 -29 c1
-16 -4 -31 -10 -33 -10 -4 -13 16 -13 76 l0 81 29 0 c52 0 78 -45 46 -80 -14
-15 -14 -19 3 -40 l19 -24 -4 31 c-6 40 18 64 59 59 18 -2 34 -10 38 -20 5
-14 7 -14 23 5 12 13 26 19 38 16 16 -4 19 0 19 27 0 33 6 46 22 46 4 0 8 -40
8 -89z m-776 53 c20 -20 20 -43 1 -64 -14 -15 -14 -20 5 -41 14 -16 18 -18 14
-6 -9 24 3 64 21 71 8 3 29 3 45 -1 28 -5 30 -8 30 -52 l0 -47 -60 0 c-54 1
-63 4 -85 31 l-24 30 2 -29 c1 -16 -4 -31 -10 -33 -10 -4 -13 16 -13 76 l0 81
29 0 c16 0 37 -7 45 -16z m821 6 c3 -6 -1 -13 -10 -16 -19 -8 -30 0 -20 15 8
14 22 14 30 1z m197 -20 l-3 -24 29 27 c22 21 38 27 73 27 52 0 69 -13 69 -51
0 -15 4 -31 10 -34 6 -4 8 11 5 40 -4 40 -2 46 13 43 10 -2 17 -13 17 -28 0
-20 6 -26 28 -28 24 -3 27 0 27 27 0 21 5 31 15 31 12 0 15 -16 15 -81 0 -60
-3 -80 -12 -77 -7 3 -14 19 -16 36 -3 28 -7 32 -33 32 -28 0 -30 -2 -27 -32 2
-24 -1 -33 -12 -33 -8 0 -14 5 -13 12 2 8 -6 7 -25 -3 -47 -24 -97 -18 -125
16 -32 37 -36 37 -34 3 1 -19 -3 -28 -13 -28 -12 0 -16 17 -18 78 -3 71 -1 78
15 75 12 -3 17 -11 15 -28z m383 14 c9 -10 14 -26 11 -37 -2 -10 1 -28 7 -38
15 -24 0 -50 -35 -63 -47 -17 -58 -4 -58 72 0 38 3 72 7 75 12 13 51 7 68 -9z
m-585 -61 c0 -14 4 -13 20 5 37 39 93 19 93 -33 0 -52 -56 -72 -93 -33 l-20
22 0 -23 c0 -14 -5 -21 -12 -19 -14 5 -23 70 -14 95 7 18 26 8 26 -14z m920
-47 c0 -14 -5 -28 -10 -31 -13 -8 -24 20 -16 40 9 24 26 17 26 -9z"/>
<path d="M1714 2145 c-9 -22 1 -29 15 -11 8 10 9 16 1 21 -5 3 -13 -1 -16 -10z"/>
<path d="M1745 2110 c-10 -11 -14 -20 -9 -20 12 1 44 25 44 34 0 12 -17 6 -35
-14z"/>
<path d="M1634 2099 c-3 -5 -4 -9 -2 -10 30 -7 48 -7 48 0 0 12 -39 21 -46 10z"/>
<path d="M1585 2067 c-11 -18 -12 -31 -4 -60 5 -21 16 -37 24 -37 12 0 12 6 4
26 -7 21 -6 31 7 45 17 18 13 49 -5 49 -6 0 -17 -10 -26 -23z"/>
<path d="M1692 2065 c-11 -25 -11 -26 10 -23 15 2 23 10 23 22 0 29 -20 30
-33 1z"/>
<path d="M1780 2030 c20 -13 40 -13 40 0 0 6 -12 10 -27 10 -22 0 -25 -2 -13
-10z"/>
<path d="M1691 2022 c-19 -6 -1 -22 25 -22 13 0 24 6 24 13 0 12 -25 17 -49 9z"/>
<path d="M1774 1995 c36 -19 52 -19 36 0 -7 8 -24 15 -39 15 l-26 0 29 -15z"/>
<path d="M1670 1969 c0 -5 5 -7 10 -4 6 3 10 8 10 11 0 2 -4 4 -10 4 -5 0 -10
-5 -10 -11z"/>
<path d="M1710 1942 c0 -15 28 -47 35 -40 8 8 -13 48 -25 48 -6 0 -10 -4 -10
-8z"/>
<path d="M1671 1928 c0 -7 4 -22 9 -33 7 -17 9 -15 9 13 1 17 -3 32 -9 32 -5
0 -10 -6 -9 -12z"/>
<path d="M1580 1915 c-7 -9 -8 -15 -2 -15 5 0 12 7 16 15 3 8 4 15 2 15 -2 0
-9 -7 -16 -15z"/>
<path d="M1685 1841 c4 -20 3 -31 -4 -31 -7 0 -11 -25 -11 -65 0 -63 1 -65 26
-65 25 0 26 2 20 33 -4 17 -9 58 -13 90 -3 32 -10 60 -16 64 -5 3 -6 -7 -2
-26z"/>
<path d="M1082 1820 c-24 -5 -59 -19 -78 -30 -32 -20 -34 -25 -34 -76 0 -30
-4 -54 -10 -54 -6 0 -10 -78 -10 -214 0 -182 2 -215 16 -227 11 -9 15 -27 13
-63 -3 -51 -3 -51 40 -75 83 -46 287 -38 392 15 l49 24 0 183 0 182 -127 -2
c-71 -1 -127 -4 -125 -7 1 -3 2 -35 2 -71 0 -51 3 -65 15 -65 12 0 15 -13 15
-55 0 -47 -3 -57 -25 -71 -24 -16 -27 -16 -45 1 -19 17 -20 32 -20 217 0 118
4 207 10 219 6 11 21 19 35 19 30 0 45 -26 45 -79 l0 -41 110 0 110 0 0 99 c0
92 -2 101 -22 116 -65 45 -260 75 -356 55z"/>
<path d="M2055 1824 c-146 -20 -205 -81 -205 -211 0 -74 20 -122 61 -143 22
-12 22 -12 -11 -38 -44 -34 -60 -78 -60 -160 0 -97 28 -147 101 -185 93 -48
265 -48 365 -1 32 15 34 19 34 69 0 35 5 57 15 65 11 9 15 35 15 106 l0 93
-32 17 -31 16 31 20 c30 19 32 23 32 83 0 49 -4 64 -16 69 -14 5 -16 17 -11
71 4 61 3 67 -20 85 -14 11 -42 24 -62 29 -44 12 -165 21 -206 15z m97 -171
c12 -11 18 -30 18 -63 0 -53 -13 -70 -51 -70 -23 0 -30 6 -39 36 -26 78 22
143 72 97z m6 -285 c7 -7 12 -39 12 -74 0 -54 -3 -65 -22 -78 -29 -20 -34 -20
-58 4 -25 25 -27 105 -4 138 17 24 53 29 72 10z"/>
<path d="M2110 1595 c0 -33 4 -45 15 -45 11 0 15 12 15 45 0 33 -4 45 -15 45
-11 0 -15 -12 -15 -45z"/>
<path d="M2110 1295 c0 -42 3 -55 15 -55 12 0 15 13 15 55 0 42 -3 55 -15 55
-12 0 -15 -13 -15 -55z"/>
<path d="M120 1752 c0 -34 7 -72 15 -88 22 -43 22 -436 0 -454 -11 -9 -15 -32
-15 -81 l0 -69 168 0 c193 1 302 12 346 38 48 27 76 92 76 177 0 91 -20 133
-78 162 l-44 22 36 15 c54 22 76 67 76 152 0 82 -21 124 -80 158 -32 19 -54
21 -267 24 l-233 4 0 -60z m332 -109 c23 -20 24 -80 1 -105 -9 -10 -30 -18
-50 -18 l-33 0 0 70 0 70 32 0 c17 0 40 -7 50 -17z m5 -285 c28 -26 31 -86 6
-117 -10 -12 -35 -24 -55 -28 l-38 -6 0 87 0 86 32 0 c19 0 41 -9 55 -22z"/>
<path d="M410 1591 c0 -42 5 -47 28 -32 19 12 11 65 -10 69 -15 3 -18 -4 -18
-37z"/>
<path d="M410 1300 c0 -38 4 -50 15 -50 24 0 40 45 27 75 -20 44 -42 31 -42
-25z"/>
<path d="M693 1771 c40 -44 52 -96 45 -186 -3 -38 -12 -64 -31 -88 l-26 -35
29 -37 c72 -90 65 -243 -14 -324 l-35 -36 139 0 140 0 0 61 c0 36 -7 74 -16
94 -15 29 -16 54 -6 239 6 113 15 239 19 279 l8 72 -144 0 -143 0 35 -39z"/>
<path d="M1609 1787 c0 -7 -4 -33 -8 -59 l-8 -48 29 0 c29 0 29 0 26 57 -2 44
-7 57 -20 59 -10 1 -18 -3 -19 -9z"/>
<path d="M2370 1716 c0 -53 4 -77 15 -86 12 -10 15 -47 15 -214 0 -132 -4
-206 -11 -213 -6 -6 -11 -38 -12 -72 l-2 -61 133 0 132 0 0 59 c0 40 -5 62
-15 71 -13 11 -15 52 -13 301 l3 289 -122 0 -123 0 0 -74z"/>
<path d="M1585 1628 c-10 -34 -22 -154 -15 -161 4 -5 23 -7 41 -5 l34 3 3 88
3 87 -31 0 c-17 0 -32 -6 -35 -12z"/>
<path d="M1672 1553 l3 -88 39 -3 39 -3 -6 38 c-3 21 -9 62 -13 91 -6 49 -8
52 -36 52 l-29 0 3 -87z"/>
<path d="M1556 1418 c-6 -19 -26 -154 -26 -172 0 -13 12 -16 60 -16 l60 0 0
100 0 100 -45 0 c-28 0 -47 -5 -49 -12z"/>
<path d="M1670 1330 l0 -100 61 0 c53 0 60 2 55 18 -3 9 -10 54 -17 100 l-11
82 -44 0 -44 0 0 -100z"/>
<path d="M1180 1274 c0 -45 24 -42 28 4 2 24 -1 32 -12 32 -12 0 -16 -10 -16
-36z"/>
<path d="M1520 1183 c0 -5 -7 -48 -15 -98 -22 -136 -28 -125 65 -125 l80 0 0
115 0 115 -65 0 c-36 0 -65 -3 -65 -7z"/>
<path d="M1670 1075 l0 -115 78 0 78 0 -15 113 -16 112 -63 3 -62 3 0 -116z"/>
<path d="M140 910 c0 -11 5 -20 10 -20 6 0 10 9 10 20 0 11 -4 20 -10 20 -5 0
-10 -9 -10 -20z"/>
<path d="M147 833 c-11 -10 -8 -53 3 -53 6 0 10 14 10 30 0 31 -2 35 -13 23z"/>
<path d="M306 907 c-13 -48 -2 -132 15 -121 5 3 9 34 9 69 0 65 -13 93 -24 52z"/>
<path d="M402 870 c0 -14 2 -19 5 -12 2 6 2 18 0 25 -3 6 -5 1 -5 -13z"/>
<path d="M2300 851 c0 -41 4 -71 10 -71 6 0 10 28 10 64 0 36 -4 68 -10 71 -6
4 -10 -20 -10 -64z"/>
<path d="M973 794 c-8 -22 11 -37 36 -29 25 8 28 30 5 39 -25 9 -34 7 -41 -10z"/>
<path d="M1220 840 c0 -13 5 -20 13 -17 6 2 12 10 12 17 0 7 -6 15 -12 18 -8
2 -13 -5 -13 -18z"/>
<path d="M1313 794 c-8 -21 13 -42 28 -27 13 13 5 43 -11 43 -6 0 -13 -7 -17
-16z"/>
<path d="M1423 794 c-8 -21 13 -42 28 -27 13 13 5 43 -11 43 -6 0 -13 -7 -17
-16z"/>
<path d="M670 840 c0 -13 5 -20 13 -17 6 2 12 10 12 17 0 7 -6 15 -12 18 -8 2
-13 -5 -13 -18z"/>
<path d="M763 794 c-8 -21 13 -42 28 -27 13 13 5 43 -11 43 -6 0 -13 -7 -17
-16z"/>
<path d="M1782 840 l-23 -29 30 -33 30 -33 1 63 c0 34 -3 62 -7 61 -5 0 -18
-13 -31 -29z"/>
<path d="M1850 845 c0 -8 5 -15 10 -15 6 0 10 7 10 15 0 8 -4 15 -10 15 -5 0
-10 -7 -10 -15z"/>
<path d="M1850 780 c0 -11 4 -20 9 -20 13 0 32 26 24 33 -13 14 -33 6 -33 -13z"/>
<path d="M2070 845 c0 -9 5 -15 11 -13 6 2 11 8 11 13 0 5 -5 11 -11 13 -6 2
-11 -4 -11 -13z"/>
<path d="M2072 783 c4 -21 33 -25 33 -3 0 8 -8 16 -18 18 -14 3 -18 -1 -15
-15z"/>
<path d="M1574 795 c-7 -18 3 -35 21 -35 15 0 24 19 18 38 -6 17 -32 15 -39
-3z"/>
</g>
</svg>
